<?xml version="1.0" encoding="UTF-8"?>
<svg xmlns="http://www.w3.org/2000/svg" xmlns:xlink="http://www.w3.org/1999/xlink" viewBox="0 0 48 48" width="48px" height="48px">
<g id="surface6884684">
<path style=" stroke:none;fill-rule:nonzero;fill:rgb(13.333334%,70.19608%,75.686276%);fill-opacity:1;" d="M 45 22.621094 C 42.261719 31.828125 37.730469 29.351562 37.039062 28.691406 C 37.039062 28.691406 38.96875 25.660156 38.96875 22.390625 C 38.96875 19.121094 37.421875 15.710938 35.011719 13.261719 C 32.609375 10.808594 29.660156 8.898438 31.601562 6.851562 C 33.179688 5.199219 36.230469 5.671875 40.558594 10.820312 C 45 16.078125 45 21.398438 45 22.621094 Z M 45 22.621094 "/>
<path style=" stroke:none;fill-rule:nonzero;fill:rgb(19.607843%,47.450981%,50.588238%);fill-opacity:1;" d="M 45 22.621094 C 45 29.679688 40.941406 36.699219 36.558594 36.699219 C 33.351562 36.699219 31.03125 35.011719 29.429688 31.210938 C 29.570312 30.578125 29.710938 29.921875 29.96875 29.121094 C 30.050781 28.871094 30.140625 28.609375 30.238281 28.328125 C 30.320312 28.109375 30.410156 27.878906 30.511719 27.648438 C 30.558594 27.53125 30.621094 27.410156 30.671875 27.28125 C 30.789062 27.03125 30.910156 26.769531 31.039062 26.5 C 31.179688 26.21875 31.308594 25.960938 31.449219 25.710938 C 31.589844 25.46875 31.730469 25.238281 31.871094 25.03125 C 31.921875 24.960938 31.960938 24.890625 32.011719 24.828125 C 32.101562 24.699219 32.199219 24.578125 32.300781 24.46875 C 32.449219 24.308594 32.601562 24.179688 32.75 24.078125 C 32.800781 24.039062 32.859375 24.011719 32.910156 23.988281 C 33.121094 23.878906 33.328125 23.839844 33.550781 23.890625 C 33.671875 23.910156 33.789062 23.949219 33.910156 24.019531 C 33.96875 24.050781 34.019531 24.089844 34.078125 24.140625 C 34.140625 24.191406 34.210938 24.238281 34.269531 24.300781 C 34.328125 24.359375 34.390625 24.429688 34.449219 24.5 C 34.511719 24.570312 34.570312 24.648438 34.628906 24.738281 C 34.699219 24.820312 34.761719 24.910156 34.820312 25.011719 L 34.820312 25.019531 C 35.371094 26.28125 35.878906 27.558594 37.039062 28.691406 C 37.730469 29.351562 42.261719 31.828125 45 22.621094 Z M 45 22.621094 "/>
<path style=" stroke:none;fill-rule:nonzero;fill:rgb(13.333334%,70.19608%,75.686276%);fill-opacity:1;" d="M 15.671875 31.96875 C 15.761719 32.300781 15.859375 32.621094 15.980469 32.929688 C 15.929688 32.960938 15.890625 32.980469 15.839844 33 C 13 34.191406 7.851562 35.128906 3.828125 30.421875 C 3.828125 30.421875 3.621094 29.765625 3.558594 29.53125 C 3.5 29.300781 3.441406 29.070312 3.390625 28.828125 C 3.339844 28.621094 3.300781 28.410156 3.261719 28.191406 C 3.199219 27.878906 3.148438 27.558594 3.109375 27.25 C 3.101562 27.121094 3.078125 27 3.070312 26.871094 C 3.058594 26.761719 3.050781 26.660156 3.050781 26.539062 C 3.03125 26.398438 3.019531 26.25 3.019531 26.101562 C 3.011719 25.859375 3 25.621094 3 25.378906 C 3 14.761719 9.648438 6 14.101562 6.050781 C 15.351562 6.070312 16.351562 6.878906 16.878906 8.230469 C 17.539062 9.929688 17.109375 14.78125 15.628906 20.539062 L 15.449219 21.320312 C 14.671875 25.089844 15.140625 28.859375 15.671875 31.949219 C 15.671875 31.960938 15.671875 31.960938 15.671875 31.96875 Z M 15.671875 31.96875 "/>
<path style=" stroke:none;fill-rule:nonzero;fill:rgb(19.607843%,47.450981%,50.588238%);fill-opacity:1;" d="M 26.21875 37.710938 C 26.199219 37.746094 26.152344 37.816406 26.132812 37.84375 C 25.964844 38.058594 25.800781 38.273438 25.621094 38.480469 C 25.359375 38.78125 25.089844 39.070312 24.808594 39.351562 C 24.421875 39.730469 24 40.089844 23.558594 40.410156 C 22.820312 40.949219 22.019531 41.378906 21.140625 41.648438 C 20.96875 41.710938 20.789062 41.761719 20.609375 41.800781 C 20.070312 41.929688 19.5 42 18.910156 42 C 18.679688 42 18.449219 41.988281 18.21875 41.980469 C 18.070312 41.96875 17.929688 41.960938 17.78125 41.941406 C 17.648438 41.929688 17.53125 41.921875 17.398438 41.898438 C 17.28125 41.890625 17.171875 41.871094 17.050781 41.851562 C 16.910156 41.828125 16.78125 41.808594 16.640625 41.78125 C 16.449219 41.75 16.261719 41.710938 16.070312 41.660156 C 15.921875 41.628906 15.769531 41.589844 15.621094 41.550781 C 15.539062 41.53125 15.449219 41.5 15.359375 41.480469 C 15.191406 41.429688 15.019531 41.378906 14.851562 41.320312 C 14.121094 41.078125 13.378906 40.78125 12.671875 40.421875 C 12.488281 40.339844 12.320312 40.25 12.148438 40.148438 C 12.03125 40.089844 11.910156 40.019531 11.800781 39.960938 C 11.660156 39.878906 11.511719 39.789062 11.371094 39.699219 C 10.859375 39.390625 10.359375 39.050781 9.878906 38.679688 C 9.660156 38.519531 9.449219 38.351562 9.238281 38.171875 C 9.148438 38.109375 9.070312 38.03125 8.988281 37.960938 C 8.941406 37.921875 8.890625 37.878906 8.851562 37.828125 C 8.628906 37.648438 8.421875 37.449219 8.210938 37.25 C 7.929688 36.980469 7.390625 36.410156 7.390625 36.398438 C 7.242188 36.238281 7.089844 36.070312 6.945312 35.898438 C 6.867188 35.808594 6.578125 35.441406 6.558594 35.414062 C 6.445312 35.269531 6.1875 34.921875 6 34.660156 C 5.902344 34.519531 5.660156 34.160156 5.597656 34.058594 C 5.511719 33.929688 5.261719 33.519531 5.21875 33.449219 C 5.050781 33.148438 4.878906 32.839844 4.71875 32.519531 C 4.429688 31.890625 3.851562 30.46875 3.828125 30.421875 C 7.832031 35.109375 12.953125 34.199219 15.800781 33.015625 C 15.816406 33.011719 15.980469 32.929688 15.980469 32.929688 C 15.980469 32.929688 15.996094 32.972656 15.996094 32.980469 C 18.640625 40.546875 23.960938 39.597656 26.21875 37.710938 Z M 26.21875 37.710938 "/>
<path style=" stroke:none;fill-rule:nonzero;fill:rgb(13.333334%,70.19608%,75.686276%);fill-opacity:1;" d="M 34.820312 25.011719 C 34.761719 24.910156 34.699219 24.820312 34.628906 24.738281 C 34.570312 24.648438 34.511719 24.570312 34.449219 24.5 C 34.390625 24.429688 34.328125 24.359375 34.269531 24.300781 C 34.210938 24.238281 34.148438 24.179688 34.078125 24.140625 C 34.019531 24.089844 33.96875 24.050781 33.910156 24.019531 C 33.789062 23.949219 33.671875 23.910156 33.550781 23.890625 C 33.328125 23.839844 33.121094 23.878906 32.910156 23.988281 C 32.859375 24.011719 32.800781 24.039062 32.75 24.078125 C 32.601562 24.179688 32.449219 24.308594 32.300781 24.46875 C 32.199219 24.578125 32.101562 24.699219 32.011719 24.828125 C 31.960938 24.890625 31.921875 24.960938 31.871094 25.03125 C 31.71875 25.238281 31.578125 25.46875 31.449219 25.710938 C 31.308594 25.960938 31.179688 26.21875 31.039062 26.5 C 30.898438 26.769531 30.78125 27.03125 30.671875 27.28125 C 30.621094 27.410156 30.558594 27.53125 30.511719 27.648438 C 30.410156 27.878906 30.320312 28.109375 30.238281 28.328125 C 30.128906 28.609375 30.039062 28.871094 29.96875 29.121094 C 29.710938 29.921875 29.570312 30.578125 29.429688 31.210938 C 29.113281 32.546875 28.0625 35.265625 26.285156 37.628906 C 26.265625 37.652344 26.222656 37.710938 26.222656 37.710938 C 23.960938 39.601562 18.632812 40.550781 15.992188 32.960938 C 15.992188 32.949219 15.980469 32.941406 15.980469 32.929688 C 18.851562 31.589844 23.941406 24.21875 26.882812 22.21875 C 29.28125 20.589844 31.929688 20.589844 33.351562 22.390625 C 33.820312 22.980469 34.230469 23.539062 34.820312 25.011719 Z M 34.820312 25.011719 "/>
</g>
</svg>
